<svg width="96" height="96" xmlns="http://www.w3.org/2000/svg">

 <g>
  <title>background</title>
  <rect fill="none" id="canvas_background" height="402" width="582" y="-1" x="-1"/>
 </g>
 <g>
  <title>Layer 1</title>
  <path fill="#6a983c" id="svg_1" d="m80,4l-64,0c-6.63,0 -12,5.37 -12,12l0,64c0,6.63 5.37,12 12,12l64,0c6.63,0 12,-5.37 12,-12l0,-64c0,-6.63 -5.37,-12 -12,-12zm4,12l0,28l-32,0l0,-32l28,0c2.21,0 4,1.79 4,4zm-68,-4l28,0l0,32l-32,0l0,-28c0,-2.21 1.79,-4 4,-4zm-4,68l0,-28l32,0l0,32l-28,0c-2.21,0 -4,-1.79 -4,-4zm68,4l-28,0l0,-32l32,0l0,28c0,2.21 -1.79,4 -4,4z"/>
 </g>
</svg>