<svg width="100.4" height="100.4" xmlns="http://www.w3.org/2000/svg">

 <g>
  <title>background</title>
  <rect fill="none" id="canvas_background" height="402" width="582" y="-1" x="-1"/>
 </g>
 <g>
  <title>Layer 1</title>
  <path fill="#6a983c" id="svg_2" d="m79.1,10.1l-15.9,0l0,-6.8c0,-0.8 -0.7,-1.5 -1.5,-1.5l-23.7,0c-0.8,0 -1.5,0.7 -1.5,1.5l0,6.8l-16.8,0c-3.5,0 -6.3,2.8 -6.3,6.3l0,75.4c0,3.5 2.8,6.3 6.3,6.3l59.5,0c3.5,0 6.3,-2.8 6.3,-6.3l0,-75.4c-0.1,-3.5 -2.9,-6.3 -6.4,-6.3zm-41.1,19.4l23.7,0c0.8,0 1.5,-0.7 1.5,-1.5l0,-6.5l10.5,0l0,64.7l-48.6,0l0,-64.6l11.4,0l0,6.4c0,0.9 0.7,1.5 1.5,1.5zm22.2,-24.7l0,15.2c0,0 0,0 0,0s0,0 0,0l0,6.5l-20.7,0l0,-6.5c0,0 0,0 0,0s0,0 0,0l0,-8.5c0,0 0,0 0,0s0,0 0,0l0,-6.7l20.7,0l0,0zm22.2,86.9c0,1.8 -1.5,3.3 -3.3,3.3l-59.4,0c-1.8,0 -3.3,-1.5 -3.3,-3.3l0,-75.3c0,-1.8 1.5,-3.3 3.3,-3.3l16.8,0l0,5.5l-12.9,0c-0.8,0 -1.5,0.7 -1.5,1.5l0,67.7c0,0.8 0.7,1.5 1.5,1.5l51.6,0c0.8,0 1.5,-0.7 1.5,-1.5l0,-67.7c0,-0.8 -0.7,-1.5 -1.5,-1.5l-12,0l0,-5.5l15.9,0c1.8,0 3.3,1.5 3.3,3.3l0,75.3z"/>
  <path fill="#6a983c" id="svg_3" d="m28.8,46.4c0,0.8 0.7,1.5 1.5,1.5l38.5,0c0.8,0 1.5,-0.7 1.5,-1.5s-0.7,-1.5 -1.5,-1.5l-38.5,0c-0.8,0 -1.5,0.7 -1.5,1.5z"/>
  <path fill="#6a983c" id="svg_4" d="m68.8,55.4l-38.5,0c-0.8,0 -1.5,0.7 -1.5,1.5s0.7,1.5 1.5,1.5l38.5,0c0.8,0 1.5,-0.7 1.5,-1.5s-0.7,-1.5 -1.5,-1.5z"/>
  <path fill="#6a983c" id="svg_5" d="m68.8,66.4l-38.5,0c-0.8,0 -1.5,0.7 -1.5,1.5c0,0.8 0.7,1.5 1.5,1.5l38.5,0c0.8,0 1.5,-0.7 1.5,-1.5c0,-0.8 -0.7,-1.5 -1.5,-1.5z"/>
 </g>
</svg>